<svg width="100" height="100" viewBox="0 0 100 100" xmlns="http://www.w3.org/2000/svg" xml:space="preserve" version="1.1">
 <path fill-rule=" nonzero" fill="#999" d="m46.26563,79.27813c-4.63125,-10.86563 -5.7,-11.57813 -16.20938,-8.37188c-4.9875,1.425 -9.61875,2.31563 -10.15313,1.95938c-0.35625,-0.53438 0.53438,-3.38438 2.1375,-6.59063c3.91875,-7.65938 2.67188,-9.79688 -6.94688,-12.46875c-4.45313,-1.24688 -8.19375,-2.85 -8.19375,-3.5625c0,-0.7125 3.74063,-2.31563 8.19375,-3.5625c4.45313,-1.24688 8.55,-3.38438 9.08438,-4.63125c0.53438,-1.425 -0.7125,-5.34375 -2.85,-8.72813c-4.09688,-7.125 -3.38438,-7.48125 9.44063,-3.5625c9.61875,3.02813 10.86563,2.31563 15.49688,-8.37188c1.06875,-2.85 2.49375,-4.9875 3.20625,-4.9875c0.53438,0 3.02813,3.5625 5.34375,8.01563c2.49375,4.80938 5.16563,7.8375 6.59063,7.30313c5.87813,-2.1375 17.27813,-4.80938 17.99063,-4.09688c0.35625,0.53438 -0.53438,3.38438 -2.1375,6.59063c-3.91875,7.65938 -2.67188,9.79688 6.94688,12.46875c4.45313,1.24688 8.19375,2.85 8.19375,3.5625c0,0.7125 -3.74063,2.31563 -8.19375,3.5625c-9.61875,2.67188 -10.86563,4.80938 -6.94688,12.46875c1.60313,3.20625 2.49375,6.05625 2.1375,6.59063c-0.7125,0.7125 -12.1125,-1.95938 -17.99063,-4.09688c-1.425,-0.53438 -4.09688,2.49375 -6.59063,7.30313c-2.31563,4.45313 -4.80938,8.01563 -5.34375,8.01563c-0.7125,0 -2.1375,-2.1375 -3.20625,-4.80938zm7.125,-14.78438c2.1375,-3.02813 3.38438,-3.38438 8.37188,-1.95938c4.9875,1.425 5.87813,1.425 4.9875,-0.7125c-0.53438,-1.425 -1.60313,-3.91875 -2.1375,-5.34375c-0.7125,-1.60313 0.53438,-2.85 3.5625,-3.74063c5.87813,-1.425 5.87813,-3.5625 0,-4.9875c-3.02813,-0.89063 -4.275,-2.1375 -3.5625,-3.74063c0.53438,-1.425 1.60313,-3.91875 2.1375,-5.34375c0.89063,-2.1375 0,-2.1375 -4.9875,-0.89063c-5.16563,1.60313 -6.23438,1.24688 -8.90625,-2.1375l-3.20625,-4.09688l-3.38438,4.275c-2.85,3.91875 -3.74063,4.09688 -9.08438,2.31563c-4.45313,-1.60313 -5.52188,-1.60313 -4.80938,0.17813c0.53438,1.06875 1.425,3.5625 2.1375,5.16563c0.89063,2.31563 0,3.38438 -3.38438,4.275c-5.87813,1.425 -5.87813,3.5625 0,4.9875c2.67188,0.7125 4.275,2.1375 3.74063,3.38438c-3.5625,8.72813 -3.74063,8.37188 2.49375,6.23438c5.16563,-1.78125 6.05625,-1.60313 8.37188,1.78125c3.20625,4.80938 4.63125,4.80938 7.65938,0.35625z"/>
</svg>