<svg width="100" height="100" viewBox="0 0 100 100" xmlns="http://www.w3.org/2000/svg" xml:space="preserve" version="1.1">
    <path fill="#999" d="m31.43496,77.82789c-17.39056,-6.4709 -26.49027,-18.40163 -24.67032,-32.35452c1.21329,-10.11079 4.33993,-16.8953 17.59277,-23.45703c13.25284,-6.56173 40.84758,-4.24653 48.12735,0c12.73959,7.07755 17.39056,14.35732 17.39056,26.28805c0,11.93073 -4.85318,19.2105 -16.98612,26.08583c-10.91965,6.06647 -30.13015,7.6842 -41.45423,3.43767zm31.74788,-8.08863c16.78391,-7.07755 21.8393,-23.86146 10.71744,-35.38776c-7.07755,-7.48198 -15.3684,-9.50414 -22.85038,-5.86426c-7.48198,3.63988 -8.08863,9.90857 -1.81994,19.2105c6.4709,9.30193 6.67312,14.1551 0.80886,20.22158l-4.24653,4.65096l5.45983,0c2.83102,0 8.29085,-1.21329 11.93073,-2.83102z"/>
</svg>