<svg viewBox="0 0 60 60" fill="none" xmlns="http://www.w3.org/2000/svg">
  <path
    d="M52.0276 14.2502H7.97238C3.56965 14.2502 0 17.8189 0 22.2226V26.5998L24.2972 32.0454V31.5958C24.2972 30.1274 25.4873 28.938 26.955 28.938H32.8894C34.357 28.938 35.5472 30.1274 35.5472 31.5958V32.0454L60 26.5475V22.2226C60 17.8189 56.4304 14.2502 52.0276 14.2502Z"
    fill="white"
  />
  <path
    d="M35.5472 41.2802C35.5472 42.7487 34.357 43.938 32.8894 43.938H26.955C25.4873 43.938 24.2972 42.7487 24.2972 41.2802V36.0068L0 30.5612V50.3402C0 54.7439 3.56965 58.3126 7.97238 58.3126H52.0276C56.4304 58.3126 60 54.7439 60 50.3402V30.5081L35.5472 36.0068V41.2802Z"
    fill="white"
  />
  <path d="M32.7344 31.7505H27.1094V41.1255H32.7344V31.7505Z" fill="white" />
  <path
    d="M21.14 7.59433C21.141 7.35269 21.2307 7.15862 21.3873 6.99644C21.5484 6.83987 21.7434 6.75105 21.9843 6.74917H38.0152C38.2559 6.75105 38.451 6.83987 38.6121 6.99644C38.7687 7.15851 38.8575 7.35257 38.8594 7.59433V11.8131H43.9213V7.59433C43.9222 5.97116 43.2566 4.47878 42.1909 3.41765C41.1308 2.35288 39.6384 1.68632 38.0152 1.68726H21.9843C20.3611 1.68632 18.8687 2.35288 17.8076 3.41765C16.7428 4.47878 16.0763 5.97116 16.0781 7.59433V11.8131H21.14V7.59433Z"
    fill="white"
  />
</svg>
