<svg xmlns="http://www.w3.org/2000/svg" fill="none" viewBox="0 0 60 60">
  <path
    fill="white"
    d="m10.89993,11.3195c-0.80133,-0.8044 -1.29106,-1.8961 -1.29211,-3.12071c0.00105,-1.22461 0.4909,-2.31633 1.29211,-3.1207c0.80555,-0.80239 1.89715,-1.29223 3.12187,-1.29329l36.5754,0l0,-3.78375l-36.57551,-0.00105c-4.52801,0.00211 -8.19657,3.66961 -8.19762,8.19879l0,43.60361c0.00105,4.528 3.66961,8.1965 8.19773,8.1977l38.4674,0l0,-47.3884l-38.46751,0c-1.22461,0 -2.31633,-0.4898 -3.12176,-1.2922zm7.62547,5.0769l30.18,0l0,39.8188l-30.18,0l0,-39.8188z"
  />
  <path
    fill="white"
    d="m16.0023,6.57715c-0.89515,0 -1.62159,0.72633 -1.62159,1.62164c0,0.89531 0.72644,1.62152 1.62159,1.62152l36.487,0l0,-3.24316l-36.487,0z"
  />
</svg>
