<svg viewBox="0 0 60 60" fill="none" xmlns="http://www.w3.org/2000/svg">
  <path
    d="M24.7006 24.7028L25.1547 22.4927L17.7683 17.6203C17.728 17.5929 17.6694 17.5983 17.6328 17.635C17.598 17.6698 17.5925 17.7284 17.62 17.7704L22.4925 25.1551L24.7006 24.7028Z"
    fill="white"
  />
  <path
    d="M37.5071 34.845L35.2988 35.2991L34.8447 37.5074L42.2312 42.3798C42.2715 42.4091 42.3301 42.4018 42.3666 42.3652C42.4014 42.3304 42.407 42.2736 42.3777 42.2314L37.5071 34.845Z"
    fill="white"
  />
  <path
    d="M37.507 25.155L42.3794 17.7703C42.4068 17.7283 42.4014 17.6697 42.3666 17.6349C42.33 17.5982 42.2714 17.5928 42.2312 17.6202L34.8447 22.4926L35.2988 24.7027L37.507 25.155Z"
    fill="white"
  />
  <path
    d="M22.4924 34.845L17.62 42.2314C17.5926 42.2735 17.598 42.3304 17.6328 42.3652C17.6694 42.4018 17.728 42.4091 17.7682 42.3798L25.1547 37.5074L24.7006 35.2991L22.4924 34.845Z"
    fill="white"
  />
  <path
    d="M51.156 29.8938L33.684 26.316L30.1062 8.84578C30.0952 8.79445 30.0512 8.75977 30 8.75977C29.9488 8.75977 29.9047 8.79457 29.8938 8.84578L26.316 26.3159L8.84402 29.8938C8.79645 29.9048 8.75977 29.9488 8.75977 30C8.75977 30.0512 8.79645 30.0953 8.84402 30.1062L26.316 33.6859L29.8938 51.1542C29.9048 51.2055 29.9488 51.2402 30 51.2402C30.0512 51.2402 30.0953 51.2054 30.1062 51.1542L33.684 33.6859L51.156 30.1062C51.2036 30.0952 51.2402 30.0512 51.2402 30C51.2402 29.9488 51.2037 29.9048 51.156 29.8938ZM30 32.6184C28.5534 32.6184 27.3816 31.4447 27.3816 30C27.3816 28.5553 28.5534 27.3816 30 27.3816C31.4466 27.3816 32.6184 28.5553 32.6184 30C32.6184 31.4447 31.4466 32.6184 30 32.6184Z"
    fill="white"
  />
  <path
    d="M57.638 18.3288C55.3528 12.9418 51.5515 8.36977 46.767 5.13246C44.3737 3.51562 41.7334 2.23207 38.9135 1.35316C36.0936 0.474258 33.0945 0 30 0C25.8728 0 21.9196 0.842344 18.3288 2.36203C12.9418 4.64719 8.36977 8.44851 5.13246 13.233C3.51375 15.6262 2.2302 18.2666 1.35129 21.0865C0.472383 23.9064 0 26.9055 0 30C0 34.129 0.842344 38.0823 2.36203 41.6712C4.64719 47.0582 8.44664 51.6302 13.233 54.8675C15.6262 56.4863 18.2666 57.7698 21.0865 58.6487C23.9064 59.5276 26.9055 60 30 60C34.1272 60 38.0823 59.1577 41.6712 57.6361C47.0582 55.3546 51.6302 51.5515 54.8675 46.767C56.4863 44.3737 57.7698 41.7334 58.6487 38.9135C59.5276 36.0936 60 33.0945 60 30C60 25.8728 59.1578 21.9196 57.638 18.3288ZM50.8961 38.8147C49.1748 42.8778 46.2891 46.3532 42.6655 48.8013C40.8546 50.0282 38.8588 50.995 36.7348 51.6578C34.6089 52.3206 32.3512 52.6795 30.0001 52.6795C26.8672 52.6795 23.8972 52.0423 21.1854 50.8961C17.1204 49.1748 13.6487 46.2891 11.1988 42.6655C9.97195 40.8546 9.00516 38.8605 8.34234 36.7348C7.67953 34.609 7.32234 32.3511 7.32059 30C7.32246 26.8671 7.95785 23.8952 9.10406 21.1853C10.8253 17.1221 13.7111 13.6486 17.3346 11.1987C19.1455 9.97371 21.1396 9.00504 23.2654 8.34223C25.3911 7.67941 27.6489 7.32234 30 7.32234C33.1348 7.32234 36.1048 7.95773 38.8147 9.10582C42.8797 10.8252 46.3514 13.7109 48.8013 17.3346C50.0282 19.1455 50.995 21.1413 51.6578 23.2654C52.3206 25.393 52.6795 27.6489 52.6795 30C52.6777 33.1329 52.0423 36.1048 50.8961 38.8147Z"
    fill="white"
  />
</svg>
