<svg viewBox="0 0 16 16" fill="none" xmlns="http://www.w3.org/2000/svg">
  <path
    d="M14.3143 3.09282C13.9064 2.56725 13.4316 2.09507 12.9066 1.68453C11.5511 0.629847 9.84731 0.00115967 7.99897 0.00115967C3.58919 0.00115967 0 3.58804 0 8.00013C0 9.45169 0.390063 10.8162 1.06869 11.9903C1.77269 13.2082 2.79091 14.2262 4.00881 14.9302C5.18291 15.6088 6.54719 15.9989 7.99894 15.9989C12.4111 15.9988 16 12.4099 16 8.00013C16 6.15154 15.3716 4.44772 14.3143 3.09282ZM7.99975 14.595C4.35744 14.595 1.40466 11.6419 1.40466 7.99963C1.40466 4.35707 4.35744 1.40428 7.99975 1.40428C11.6428 1.40428 14.5956 4.3571 14.5956 7.99963C14.5956 11.6419 11.6428 14.595 7.99975 14.595Z"
    fill="white"
  />
  <path
    d="M7.37056 9.2372C7.32418 9.21829 7.27084 9.22864 7.23534 9.26414L4.72312 11.7761C4.61849 11.881 4.56618 12.0271 4.58043 12.1744C4.59468 12.3218 4.67756 12.4249 4.79696 12.5378C4.79696 12.5378 5.18184 12.9411 5.74027 13.1729C6.29899 13.404 6.85612 13.3908 6.85612 13.3908C7.01052 13.391 7.15193 13.3814 7.2664 13.2872C7.3809 13.1931 7.44721 13.0525 7.44721 12.9044L7.44696 9.35192C7.44696 9.3017 7.4169 9.25639 7.37056 9.2372Z"
    fill="white"
  />
  <path
    d="M8.63015 6.76179C8.67624 6.78098 8.72962 6.7706 8.76509 6.7351L11.2773 4.22288C11.382 4.11826 11.4343 3.97217 11.4206 3.82476C11.4061 3.67738 11.3229 3.57404 11.2035 3.46135C11.2035 3.46135 10.8191 3.05779 10.2604 2.82651C9.70171 2.5952 9.14455 2.60842 9.14455 2.60842C8.99018 2.60792 8.84849 2.61798 8.73427 2.71229C8.62002 2.80632 8.55371 2.94698 8.55371 3.09485V6.64754C8.55371 6.69754 8.58405 6.74288 8.63015 6.76179Z"
    fill="white"
  />
  <path
    d="M6.76245 8.51869C6.74327 8.4726 6.6982 8.44254 6.64799 8.44254H3.09527C2.94686 8.44254 2.8067 8.50835 2.7127 8.62282C2.61845 8.73728 2.6042 8.86888 2.60861 9.03335C2.60861 9.03335 2.59539 9.59025 2.82667 10.1489C3.05824 10.7076 3.4618 11.0923 3.4618 11.0923C3.57058 11.2013 3.67755 11.2948 3.8252 11.3091C3.97233 11.3233 4.11864 11.2708 4.22305 11.1661L6.73577 8.65388C6.77099 8.61869 6.78161 8.56532 6.76245 8.51869Z"
    fill="white"
  />
  <path
    d="M9.23762 7.56887C9.25681 7.61497 9.30212 7.64525 9.35209 7.64525H12.9045C13.053 7.64525 13.1936 7.57894 13.2874 7.46475C13.3814 7.35025 13.3957 7.21865 13.3912 7.05419C13.3912 7.05419 13.4045 6.49731 13.1732 5.93862C12.9416 5.3799 12.5383 4.99553 12.5383 4.99553C12.4295 4.88622 12.3223 4.79297 12.1749 4.77872C12.0275 4.76447 11.8814 4.81681 11.7763 4.92144L9.26434 7.4339C9.22881 7.46887 9.21821 7.52225 9.23762 7.56887Z"
    fill="white"
  />
  <path
    d="M2.71269 7.46476C2.80697 7.57894 2.94688 7.64526 3.09526 7.64526H6.64794C6.69816 7.64526 6.74326 7.61498 6.76241 7.56888C6.78182 7.52226 6.77122 7.46888 6.73548 7.43366L4.22329 4.92144C4.11863 4.81654 3.97254 4.76448 3.82516 4.77873C3.67751 4.79273 3.57466 4.87585 3.46176 4.99526C3.46176 4.99526 3.05819 5.37988 2.82688 5.9386C2.59532 6.49729 2.60854 7.05416 2.60854 7.05416C2.60857 7.20882 2.61841 7.35026 2.71269 7.46476Z"
    fill="white"
  />
  <path
    d="M13.2875 8.62307C13.1934 8.50832 13.0531 8.4425 12.9046 8.4425H9.35195C9.30223 8.4425 9.25688 8.47257 9.23745 8.51891C9.21829 8.56529 9.22888 8.61866 9.26438 8.65385L11.7763 11.1661C11.8812 11.2707 12.0273 11.3233 12.1747 11.309C12.3223 11.2948 12.4254 11.2114 12.5383 11.092C12.5383 11.092 12.9416 10.7076 13.1732 10.1489C13.4045 9.59022 13.3913 9.03332 13.3913 9.03332C13.3913 8.87897 13.3815 8.73729 13.2875 8.62307Z"
    fill="white"
  />
  <path
    d="M7.23491 6.73482C7.27041 6.77032 7.32376 6.78094 7.37013 6.76175C7.41651 6.74257 7.44654 6.697 7.44654 6.64728V3.09488C7.44679 2.94644 7.38023 2.80632 7.26598 2.71204C7.15151 2.6175 7.02041 2.60378 6.8557 2.60816C6.8557 2.60816 6.29857 2.59494 5.73985 2.82625C5.18141 3.05757 4.79654 3.46085 4.79654 3.46085C4.68723 3.56988 4.59423 3.67685 4.58001 3.8245C4.56551 3.97213 4.61807 4.11822 4.72269 4.22285L7.23491 6.73482Z"
    fill="white"
  />
  <path
    d="M8.76509 9.26387C8.72962 9.22887 8.67624 9.21828 8.63015 9.23718C8.58405 9.25637 8.55371 9.30168 8.55371 9.35193V12.9046C8.55371 13.0525 8.62002 13.1932 8.73427 13.2872C8.84852 13.3814 8.98009 13.3957 9.14455 13.391C9.14455 13.391 9.70171 13.404 10.2604 13.173C10.8191 12.9411 11.2035 12.5381 11.2035 12.5381C11.3128 12.4291 11.406 12.3218 11.4206 12.1744C11.4343 12.0271 11.382 11.8812 11.2773 11.7761L8.76509 9.26387Z"
    fill="white"
  />
</svg>
