<?xml version="1.0" encoding="UTF-8"?><svg xmlns="http://www.w3.org/2000/svg" width="84.9" height="84.9" xmlns:xlink="http://www.w3.org/1999/xlink" viewBox="0 0 84.9 84.9"><defs><style>.i{fill:#fff;}.j{clip-path:url(#h);}.k{fill:#d96680;}.l{stroke:#eda46a;}.l,.m,.n,.o{fill:none;}.l,.m,.o{stroke-linecap:round;stroke-linejoin:round;stroke-width:0px;}.m{stroke:#f0d874;}.p{fill:#eda46a;}.q{clip-path:url(#e);}.r{clip-path:url(#d);}.o{stroke:#97cfe2;}.s{fill:#f0d874;}.t{fill:#d6667f;}.u{fill:#97cfe2;}.v{clip-path:url(#f);}.w{opacity:.44;}.x{opacity:.31;}.y{clip-path:url(#g);}</style><clipPath id="d"><rect x="26.03" y="15.56" width=".42" height="17.49" style="fill:none;"/></clipPath><clipPath id="e"><rect x="35.71" y="5.9" width="5.64" height="4.14" style="fill:none;"/></clipPath><clipPath id="f"><rect x="22.87" y="15.37" width="16.68" height=".19" style="fill:none;"/></clipPath><clipPath id="g"><rect x="50.45" y="45.31" width="1.49" height="1.49" style="fill:none;"/></clipPath><clipPath id="h"><rect x="50.45" y="45.31" width="0" height="0" style="fill:none;"/></clipPath></defs><g id="a"/><g id="b"><g id="c"><g><path d="M0,42.45C0,19.01,19.01,0,42.45,0s42.45,19.01,42.45,42.45-19.01,42.45-42.45,42.45S0,65.9,0,42.45" style="fill:#fff;"/><path d="M82.74,28.34c1.38,4.06,2.15,8.4,2.16,12.91,0,.02,0,.04,0,.06h0s0-.05,0-.07c0-4.51-.77-8.84-2.16-12.91h0" style="fill:#d96680;"/><path d="M64.29,5.91c2.4,1.41,4.65,3.04,6.71,4.87h0c-2.06-1.83-4.31-3.46-6.71-4.87h0" style="fill:#f0d874;"/><path d="M30.16,1.77h0c-2.15,.63-4.24,1.42-6.24,2.36h0c1.99-.94,4.08-1.73,6.23-2.36" style="fill:#97cfe2;"/><path d="M38.92,.15s-.09,0-.13,0" style="fill:none; stroke:#eda46a; stroke-linecap:round; stroke-linejoin:round; stroke-width:0px;"/><path d="M40.68,.06c.18,0,.35-.02,.53-.03" style="fill:none; stroke:#eda46a; stroke-linecap:round; stroke-linejoin:round; stroke-width:0px;"/><path d="M46.13,.16s-.08,0-.11,0" style="fill:none; stroke:#eda46a; stroke-linecap:round; stroke-linejoin:round; stroke-width:0px;"/><path d="M43.9,.05c.21,0,.42,.02,.64,.03" style="fill:none; stroke:#eda46a; stroke-linecap:round; stroke-linejoin:round; stroke-width:0px;"/><path d="M34.93,.68c-.08,.01-.16,.02-.24,.04" style="fill:none; stroke:#eda46a; stroke-linecap:round; stroke-linejoin:round; stroke-width:0px;"/><path d="M36.98,.36c.06,0,.11-.02,.17-.03" style="fill:none; stroke:#eda46a; stroke-linecap:round; stroke-linejoin:round; stroke-width:0px;"/><path d="M33.55,.92s-.08,.02-.11,.03h.01s.07-.02,.1-.03" style="fill:#eda46a;"/><path d="M30.94,1.57c-.26,.07-.52,.12-.78,.19h0c.25-.07,.52-.12,.77-.19" style="fill:#eda46a;"/><path d="M49.08,.5c-.39-.06-.79-.09-1.18-.14,.07,0,.14,.02,.21,.03,.32,.04,.65,.06,.97,.11h0Z" style="fill:#eda46a;"/><path d="M9.14,15.71h0c-2.56,3.14-4.66,6.66-6.2,10.45h0c1.54-3.79,3.64-7.3,6.2-10.45" style="fill:#97cfe2;"/><path d="M23.92,4.14h0c-5.78,2.73-10.83,6.71-14.79,11.57h0c3.95-4.85,9-8.83,14.78-11.57" style="fill:#eda46a;"/><path d="M52.09,1.12s-.09-.02-.14-.03" style="fill:none; stroke:#97cfe2; stroke-linecap:round; stroke-linejoin:round; stroke-width:0px;"/><path d="M54.32,1.7s.1,.03,.15,.04" style="fill:none; stroke:#97cfe2; stroke-linecap:round; stroke-linejoin:round; stroke-width:0px;"/><path d="M59.64,3.59c.18,.08,.36,.14,.54,.22-.18-.08-.36-.14-.54-.22" style="fill:#97cfe2;"/><path d="M55.51,2.05s.06,.02,.08,.03h.02s-.07-.02-.11-.03" style="fill:#97cfe2;"/><path d="M64.29,5.9c-.13-.08-.28-.13-.41-.21,.13,.07,.27,.13,.4,.21h0Z" style="fill:#97cfe2;"/><path d="M71,10.78c.73,.65,1.43,1.33,2.11,2.02h0c-.68-.7-1.38-1.38-2.11-2.03h0" style="fill:#97cfe2;"/><path d="M49.08,.51c.25,.04,.48,.11,.73,.15,.05,0,.1,.01,.15,.02-.29-.05-.58-.13-.87-.18h0" style="fill:#97cfe2;"/><path d="M78.32,19.27c1.83,2.81,3.32,5.85,4.41,9.06h0c-1.1-3.22-2.59-6.26-4.42-9.07h0" style="fill:#97cfe2;"/><path d="M73.12,12.8c1.94,1.98,3.69,4.15,5.2,6.47h0c-1.51-2.33-3.26-4.49-5.2-6.48h0" style="fill:#f0d874;"/><path d="M1.93,29.12c.07-.24,.14-.48,.22-.71-.08,.24-.15,.47-.22,.71" style="fill:#d96680;"/><path d="M.64,34.86c.04-.25,.08-.5,.13-.75-.04,.25-.09,.5-.13,.75" style="fill:#d96680;"/><path d="M.28,37.44s0-.03,0-.05c0-.02,0-.04,0-.06,0,.04-.01,.07-.01,.11" style="fill:#d96680;"/><path d="M1.25,31.72c.03-.12,.06-.24,.08-.36-.03,.12-.06,.24-.08,.36" style="fill:#d96680;"/><path d="M2.94,26.16h0c-.02,.05-.04,.11-.06,.17,.02-.05,.04-.11,.06-.16h0" style="fill:#d96680;"/><path d="M.14,39.03s0,.02,0,.03h0v-.03" style="fill:#d96680;"/><polygon points="84.23 49.72 84.23 49.72 84.36 49.72 84.36 49.72 84.23 49.72" style="fill:#97cfe2;"/><polyline points=".63 49.72 .5 49.72 .5 49.72 .63 49.72 .63 49.72" style="fill:#f0d874;"/><path d="M79.94,62.4c-.07,.14-.14,.28-.22,.41,.08-.14,.15-.27,.22-.41" style="fill:#eda46a;"/><path d="M81.67,58.78c-.1,.24-.21,.47-.31,.71,.11-.24,.21-.47,.31-.71" style="fill:#eda46a;"/><g style="opacity:.31;"><g style="clip-path:url(#d);"><polygon points="26.44 33.06 26.03 15.56 26.33 32.96 26.44 33.06" style="fill:#f0d874;"/></g></g><path d="M26.47,34.04c.11-.23,.23-.46,.35-.68l-.37-.31,.02,.99Z" style="fill:#f0d874;"/><path d="M41.34,9.95l-.07,.09-5.56-4.14h0l-3.94,3.8,7.78,5.67-13.52,.19,.42,17.49,.37,.31c2.55-4.73,7.3-8.16,12.92-9l8.55-9.42-6.94-4.99Z" style="fill:#f0d874;"/><path d="M26.33,32.96l.02,1.33c.04-.08,.08-.17,.12-.25l-.02-.99-.12-.1Z" style="fill:#97cfe2;"/><g style="opacity:.31;"><g style="clip-path:url(#e);"><polygon points="41.34 9.95 35.71 5.9 41.27 10.04 41.34 9.95" style="fill:#f0d874;"/></g></g><path d="M82.74,28.34l-11.53,12.98h13.69s0-.05,0-.07c0-4.51-.77-8.84-2.16-12.91" style="fill:#d96680;"/><g style="opacity:.31;"><g style="clip-path:url(#f);"><polygon points="26.03 15.56 39.55 15.38 22.87 15.56 26.03 15.56" style="fill:#f0d874;"/></g></g><polygon points="15.57 24.06 26.33 32.96 26.45 33.06 26.03 15.56 22.87 15.56 15.57 24.06" style="fill:#d96680;"/><path d="M64.29,5.91l-12.49,14.75h10.46l8.75-9.88h0c-2.06-1.83-4.31-3.46-6.71-4.87" style="fill:#f0d874;"/><path d="M39.55,15.38l-7.78-5.67,3.94-3.8h0L30.16,1.77c-2.15,.63-4.23,1.43-6.23,2.37h0l15.62,11.24Z" style="fill:#97cfe2;"/><path d="M30.16,1.77l5.55,4.13,5.64,4.05L49.08,.51h0c-.32-.05-.65-.07-.97-.11-.69-.09-1.38-.18-2.08-.24-.49-.04-.99-.05-1.48-.08C43.84,.05,43.14,0,42.43,0c-.59,0-1.17,.04-1.75,.06-.59,.02-1.18,.04-1.76,.09-.65,.05-1.3,.13-1.94,.21-.69,.09-1.37,.19-2.05,.31-.49,.09-.99,.17-1.48,.27h-.02c-.84,.18-1.67,.39-2.5,.62-.26,.07-.52,.12-.77,.2h0" style="fill:#eda46a;"/><path d="M68.12,31.07v-9.8l-10.53,11.31c1.55,2.54,2.45,5.51,2.47,8.67,0,.02,0,.05,0,.07h2.29l5.77-6.77v-3.48Z" style="fill:#eda46a;"/><path d="M15.57,24.06l7.3-8.5-13.73,.15c-2.56,3.15-4.66,6.66-6.2,10.45h0l21.86,15.15h0s0-.05,0-.07c.01-2.48,.57-4.83,1.55-6.96l-.02-1.33-10.76-8.9Z" style="fill:#97cfe2;"/><path d="M22.87,15.56l16.68-.19L23.92,4.14c-5.78,2.73-10.82,6.71-14.78,11.57h0l13.73-.15Z" style="fill:#eda46a;"/><path d="M41.34,9.95l6.94,4.99-8.55,9.42c.88-.13,1.78-.2,2.7-.2,6.45,0,12.09,3.38,15.16,8.42l10.53-11.31v-2.48l4.99-5.99h0c-.68-.7-1.38-1.38-2.11-2.02l-8.75,9.88h-10.46l12.49-14.75h0c-.13-.08-.27-.14-.4-.21-1.2-.68-2.43-1.31-3.7-1.88-.18-.08-.36-.14-.54-.22-1.31-.57-2.65-1.07-4.03-1.51h-.02c-.42-.14-.84-.27-1.27-.39-.74-.21-1.48-.4-2.24-.58-.75-.17-1.51-.33-2.28-.46-.24-.04-.48-.11-.73-.15l-7.73,9.44Z" style="fill:#97cfe2;"/><path d="M82.74,28.34h0c-1.1-3.22-2.59-6.26-4.42-9.07l-10.2,11.8v3.48l-5.77,6.77h8.85l11.53-12.98Z" style="fill:#97cfe2;"/><path d="M78.32,19.27h0c-1.51-2.33-3.26-4.49-5.2-6.47l-4.99,5.99v12.29l10.2-11.8Z" style="fill:#f0d874;"/><path d="M0,41.25l24.79,.07L2.94,26.17c-.02,.05-.04,.11-.06,.16-.26,.66-.5,1.36-.73,2.07-.08,.24-.15,.47-.22,.72-.21,.73-.42,1.47-.6,2.24-.03,.12-.06,.24-.08,.36-.18,.79-.33,1.59-.48,2.39-.04,.25-.09,.5-.13,.75-.13,.82-.25,1.65-.35,2.47,0,.02,0,.04,0,.06-.06,.56-.11,1.11-.16,1.66h0c-.02,.31-.04,.59-.06,.88,0,.01,0,.02,0,.04-.03,.43-.05,.87-.07,1.28" style="fill:#d96680;"/><path d="M47.35,42.18c-.2-.2-.31-.31-.31-.31,0,0,.11,.12,.31,.31" style="fill:#f0d874;"/><polygon points="35.77 41.56 30.99 37.81 34.22 40.34 35.77 41.56" style="fill:#f0d874;"/><path d="M33.14,51.94c1.79,1.51,3.93,2.55,6.2,3,.91,.18,1.84,.28,2.77,.28,1.71,0,3.39-.32,5.02-.95,3.17-1.23,5.77-3.56,7.35-6.61,1.03-1.99,1.55-4.14,1.55-6.36,0-2.44-.66-4.86-1.9-6.99-1.11-1.9-2.68-3.53-4.53-4.72-1.03-.66-2.13-1.18-3.25-1.54-1.38-.44-2.81-.67-4.25-.67-5.91,0-11.19,3.76-13.14,9.35-.52,1.49-.78,3.02-.78,4.56,0,1.17,.16,2.36,.48,3.55,.73,2.78,2.28,5.23,4.47,7.08m-2.79-10.38c0-1.31,.23-2.57,.64-3.75,1.55-4.47,5.79-7.68,10.79-7.68,1.22,0,2.39,.19,3.49,.55,.95,.3,1.84,.73,2.67,1.26,1.53,.98,2.8,2.31,3.72,3.88h0c.98,1.69,1.56,3.65,1.56,5.74,0,1.88-.47,3.66-1.27,5.22v.02c-1.29,2.46-3.43,4.39-6.04,5.4-1.28,.49-2.67,.78-4.12,.78-.78,0-1.54-.08-2.28-.23-1.91-.39-3.65-1.25-5.09-2.47-1.77-1.49-3.07-3.51-3.67-5.82-.25-.93-.39-1.91-.39-2.92" style="fill:#f0d874;"/><polygon points="41.75 34.7 45.27 30.67 35.77 41.56 41.75 34.7" style="fill:#f0d874;"/><path d="M48.97,43.82c-.31-.32-.61-.62-.87-.88,.26,.26,.56,.56,.87,.88" style="fill:#f0d874;"/><path d="M39.31,44.51c-.2,.2-2.87,3.38-4.89,5.78,1.44,1.21,3.18,2.08,5.09,2.47,2.19-2.9,6.18-8.25,6.18-8.25,0,0-6.04-.33-6.38,0" style="fill:#d96680;"/><g style="opacity:.44;"><g style="clip-path:url(#g);"><path d="M51.93,46.81v-.02l-1.48-1.47c.53,.54,1.04,1.05,1.48,1.49" style="fill:#f0d874;"/></g></g><path d="M50.45,45.31l-5.19,6.51,.64,.39c2.61-1.01,4.75-2.94,6.03-5.4-.44-.44-.95-.96-1.48-1.49h0" style="fill:#eda46a;"/><path d="M45.27,30.67c-1.1-.35-2.27-.55-3.49-.55-5,0-9.24,3.21-10.79,7.68l4.78,3.75,9.5-10.88Z" style="fill:#f0d874;"/><path d="M47.35,42.18c.18,.19,.44,.45,.75,.76,.26,.26,.55,.56,.87,.88,.47,.48,.98,.99,1.48,1.49h0l1.49,1.47c.81-1.57,1.27-3.34,1.27-5.22,0-2.1-.57-4.05-1.56-5.74l-4.61,6.05s.11,.12,.31,.31" style="fill:#f0d874;"/><polygon points="50.45 45.31 50.45 45.31 50.45 45.31 50.45 45.31" style="fill:#f0d874;"/><path d="M30.99,37.81c-.41,1.18-.64,2.43-.64,3.75,0,1.01,.14,1.99,.39,2.92l3.48-4.14-3.22-2.53Z" style="fill:#eda46a;"/><path d="M47.94,40.08v-8.14c-.83-.53-1.72-.96-2.67-1.26l-3.52,4.03,6.19,5.38Z" style="fill:#eda46a;"/><line x1="50.45" y1="45.31" x2="50.44" y2="45.31" style="fill:none; stroke:#eda46a; stroke-linecap:round; stroke-linejoin:round; stroke-width:0px;"/><g style="opacity:.44;"><g style="clip-path:url(#h);"><line x1="50.45" y1="45.31" x2="50.44" y2="45.31" style="fill:none; stroke:#f0d874; stroke-linecap:round; stroke-linejoin:round; stroke-width:0px;"/></g></g><path d="M34.42,50.29c2.02-2.4,4.69-5.57,4.89-5.78,.33-.33,6.38,0,6.38,0,0,0-3.98,5.35-6.18,8.25,.73,.15,1.49,.23,2.27,.23,1.45,0,2.84-.28,4.12-.78l-.65-.39,5.19-6.51c-.5-.51-1.01-1.02-1.48-1.49-.31-.32-.61-.62-.87-.88-.3-.31-.56-.57-.75-.76-.2-.2-.31-.31-.31-.31l4.61-6.05c-.91-1.57-2.19-2.9-3.72-3.88v8.14l-6.19-5.38-5.98,6.85-1.55-1.22-3.47,4.14c.61,2.3,1.91,4.32,3.67,5.81" style="fill:#97cfe2;"/><path d="M79.7,49.72c-.46,2.38-1.17,4.67-2.06,6.87,1.78-.45,3.56-.89,5.33-1.33,.57-1.8,1.06-3.64,1.39-5.54h-4.66Z" style="fill:#97cfe2;"/><path d="M70.52,67.89c-2.08,2.28-4.46,4.27-7.03,6,.55,1.51,1.03,3.01,1.46,4.52,1.63-1.02,3.21-2.12,4.68-3.34,.38-2.37,.67-4.76,.9-7.17" style="fill:#d6667f;"/><path d="M55.63,77.92c-1.09,1.89-2.14,3.8-3.12,5.75,4.46-1.1,8.65-2.88,12.44-5.26-.43-1.51-.91-3.01-1.46-4.52-2.44,1.63-5.08,2.98-7.86,4.03" style="fill:#eda46a;"/><path d="M45.41,80.19c-1.14,1.59-2.3,3.15-3.5,4.69,.17,0,.35,.02,.52,.02,3.48,0,6.85-.45,10.08-1.24,.99-1.94,2.03-3.86,3.12-5.74-3.22,1.21-6.65,1.99-10.22,2.27" style="fill:#97cfe2;"/><path d="M42.43,80.33c-1.69,0-3.35-.15-4.98-.36-.47,1.42-.82,2.9-.99,4.46,1.79,.25,3.6,.43,5.45,.45,1.19-1.53,2.35-3.1,3.5-4.69-.98,.08-1.97,.14-2.98,.14" style="fill:#eda46a;"/><path d="M29.49,78.01v4.83c2.25,.71,4.57,1.26,6.97,1.59,.17-1.56,.53-3.04,.99-4.46-2.76-.36-5.42-1.04-7.96-1.96" style="fill:#97cfe2;"/><path d="M17.9,71.29c-.09,1.78-.31,3.54-.77,5.24,3.71,2.73,7.87,4.88,12.36,6.3v-4.83c-4.28-1.55-8.18-3.85-11.59-6.72" style="fill:#f0d874;"/><path d="M17.9,71.29c-2.34-1.97-4.42-4.22-6.23-6.69-.82,1.42-1.7,2.78-2.68,4.05,2.35,2.97,5.08,5.63,8.14,7.88,.46-1.7,.68-3.46,.77-5.24" style="fill:#eda46a;"/><path d="M11.67,64.6c-1.97-2.69-3.53-5.67-4.73-8.83-1.53,.27-3.06,.58-4.59,.93,1.56,4.36,3.82,8.39,6.64,11.95,.98-1.27,1.86-2.63,2.68-4.05" style="fill:#d6667f;"/><path d="M6.94,55.77c-.74-1.95-1.38-3.95-1.78-6.05H.5c.41,2.4,1.04,4.73,1.85,6.97,1.53-.34,3.06-.65,4.59-.92" style="fill:#f0d874;"/><path d="M77.65,56.6c-1.69,4.19-4.13,8-7.12,11.3-.23,2.41-.52,4.8-.9,7.17,4.09-3.4,7.51-7.56,10.09-12.25,.08-.14,.15-.27,.22-.41,.51-.95,.98-1.92,1.42-2.92,.1-.24,.21-.47,.31-.71,.48-1.15,.93-2.32,1.31-3.52-1.78,.44-3.55,.88-5.33,1.34" style="fill:#eda46a;"/></g></g></g></svg>