<svg width="100" height="100" viewBox="0 0 100 100" xmlns="http://www.w3.org/2000/svg" xml:space="preserve" version="1.1">
    <g stroke="null" id="svg_6">
        <path fill="#999" d="m32.18533,77.93459c-30.10565,-11.31488 -33.74258,-42.02668 -6.6677,-56.17028c6.6677,-3.63692 11.92103,-4.64718 23.64001,-4.64718c11.71898,0 16.97231,1.01026 23.64001,4.64718c24.04411,12.52718 24.04411,41.01643 0,53.34156c-10.70872,5.45539 -30.10565,6.6677 -40.61232,2.82872zm32.53027,-5.45539c3.03077,-1.01026 8.68821,-4.84923 12.32513,-8.48616c5.45539,-5.25334 6.46564,-7.67795 6.46564,-15.55796c0,-7.88 -1.01026,-10.30462 -6.46564,-15.55796c-8.28411,-8.08205 -15.3559,-10.70872 -28.08514,-10.70872c-12.72924,0 -21.82155,3.83898 -28.69129,11.92103c-10.50667,12.52718 -4.84923,30.50976 11.71898,37.78361c7.4759,3.23282 24.85232,3.63692 32.73232,0.60615z"/>
        <path fill="#999" d="m37.02042,66.634c-16.97231,-6.06154 -22.22565,-20.60924 -11.51693,-31.31796c12.12308,-11.92103 33.13642,-11.92103 45.25951,0c16.97231,16.97231 -8.48616,40.61232 -33.74258,31.31796zm23.23591,-6.06154c12.32513,-6.46564 10.30462,-22.4277 -3.43487,-27.07488c-11.92103,-4.24308 -24.04411,-0.4041 -27.88309,8.48616c-6.46564,15.55796 13.94154,27.68104 31.31796,18.58873z"/>
        <path fill="#999" d="m35.01264,47.51184c0.04617,-2.36527 3.99692,-10.18345 14.1436,-10.10256c10.14667,0.08089 14.1436,5.85948 14.1436,10.10256c0,4.24308 -2.32978,9.62812 -14.1436,10.10256c-11.81382,0.47445 -14.18976,-7.7373 -14.1436,-10.10256zm20.20514,3.03077c3.03077,-3.63692 -0.40411,-9.09231 -6.06154,-9.09231c-2.02052,0 -4.64719,1.41436 -6.06154,3.03078c-3.03078,3.63692 0.4041,9.09231 6.06154,9.09231c2.02051,0 4.64717,-1.41436 6.06154,-3.03078z"/>
    </g>
</svg>