<svg viewBox="0 0 60 60" fill="none" xmlns="http://www.w3.org/2000/svg">
  <path
    d="M11.1295 6.53391H3.57176C1.59914 6.53391 0 8.13363 0 10.1066V50.2174C0 52.1905 1.59914 53.7881 3.57176 53.7881H11.1295C13.1021 53.7881 14.7013 52.1904 14.7013 50.2174V10.1066C14.7014 8.13363 13.1021 6.53391 11.1295 6.53391ZM11.5511 27.4496H3.15023V25.3494H11.5511V27.4496ZM11.5511 21.1489H3.15023V16.9486H11.5511V21.1489Z"
    fill="white"
  />
  <path
    d="M27.9313 6.53391H20.3735C18.4009 6.53391 16.8018 8.13363 16.8018 10.1066V50.2174C16.8018 52.1905 18.4009 53.7881 20.3735 53.7881H27.9313C29.9039 53.7881 31.503 52.1904 31.503 50.2174V10.1066C31.503 8.13363 29.9038 6.53391 27.9313 6.53391ZM28.3527 27.4496H19.9519V25.3494H28.3527V27.4496ZM28.3527 21.1489H19.9519V16.9486H28.3527V21.1489Z"
    fill="white"
  />
  <path
    d="M59.8135 46.6764L47.058 8.64831C46.4308 6.77788 44.4061 5.77089 42.5361 6.39738L35.3706 8.80113C33.5001 9.42878 32.4926 11.4531 33.1201 13.3236L45.8756 51.3516C46.5033 53.2221 48.5276 54.2291 50.3975 53.6025L57.5631 51.1987C59.4335 50.5712 60.441 48.5469 59.8135 46.6764ZM38.2824 18.8078L46.2473 16.1364L47.583 20.1193L39.618 22.7907L38.2824 18.8078ZM41.6218 28.7642L40.9537 26.7728L48.9187 24.1014L49.5862 26.0928L41.6218 28.7642Z"
    fill="white"
  />
</svg>
