<?xml version="1.0" encoding="utf-8"?>
<!-- Generator: Adobe Illustrator 25.3.0, SVG Export Plug-In . SVG Version: 6.00 Build 0)  -->
<svg
  version="1.1"
  id="Layer_1"
  xmlns="http://www.w3.org/2000/svg"
  xmlns:xlink="http://www.w3.org/1999/xlink"
  x="0px"
  y="0px"
  viewBox="0 0 440.7 440.7"
  style="enable-background: new 0 0 440.7 440.7"
  xml:space="preserve"
>
  <path
    d="M245.7,220.4L435.5,30.6c7-7,7-18.3,0-25.3c-7-7-18.3-7-25.3,0L220.4,195L30.6,5.2c-7-7-18.3-7-25.3,0s-7,18.3,0,25.3
	l189.8,189.8L5.2,410.2c-7,7-7,18.3,0,25.3c3.5,3.5,8.1,5.2,12.7,5.2s9.2-1.7,12.7-5.2l189.8-189.8l189.8,189.8
	c3.5,3.5,8.1,5.2,12.7,5.2s9.2-1.7,12.7-5.2c7-7,7-18.3,0-25.3L245.7,220.4z"
  />
</svg>
